<svg xmlns="http://www.w3.org/2000/svg" fill="none" viewBox="0.68 0 32 32">
<g clip-path="url(#clip0_1_188)">
<path d="M32.0736 9.2041C32.0736 7.22461 30.4637 5.61426 28.4847 5.61426H24.8036V5.13379C24.8036 2.5791 22.725 0.5 20.1698 0.5H13.1825C10.6273 0.5 8.54871 2.5791 8.54871 5.13379V5.61426H4.86756C2.88856 5.61426 1.27869 7.22461 1.27869 9.2041V10.831C1.27869 12.9765 2.05103 14.9437 3.32996 16.4736V25.8213C3.32996 28.9521 5.87732 31.5 9.00867 31.5H24.3436C27.475 31.5 30.0223 28.9521 30.0223 25.8213V16.4736C31.3013 14.9437 32.0736 12.9765 32.0736 10.831V9.2041ZM11.5487 5.13379C11.5487 4.2334 12.2816 3.5 13.1825 3.5H20.1698C21.0707 3.5 21.8036 4.2334 21.8036 5.13379V5.61426H11.5487V5.13379ZM4.27869 9.2041C4.27869 8.8789 4.54285 8.61426 4.86756 8.61426H28.4847C28.8095 8.61426 29.0736 8.87891 29.0736 9.2041V10.831C29.0736 12.3829 28.4587 13.7911 27.4644 14.8346C27.4611 14.8379 27.4581 14.8418 27.4548 14.8452C26.3961 15.9509 24.9095 16.6436 23.2616 16.6436H22.5223V16.2334C22.5223 15.4053 21.851 14.7334 21.0223 14.7334C20.1937 14.7334 19.5223 15.4053 19.5223 16.2334V16.6436H13.83V16.2334C13.83 15.4053 13.1586 14.7334 12.33 14.7334C11.5014 14.7334 10.83 15.4053 10.83 16.2334V16.6436H10.0907C8.44281 16.6436 6.95624 15.9509 5.89752 14.8452C5.89416 14.8418 5.89123 14.838 5.88788 14.8346C4.89362 13.7911 4.27869 12.3829 4.27869 10.8311V9.2041ZM24.3436 28.5H9.00867C7.53162 28.5 6.32996 27.2978 6.32996 25.8213V18.7888C7.47242 19.3311 8.74427 19.6436 10.0907 19.6436H10.83V20.0537C10.83 20.8819 11.5013 21.5537 12.33 21.5537C13.1586 21.5537 13.83 20.8818 13.83 20.0537V19.6436H19.5223V20.0537C19.5223 20.8819 20.1937 21.5537 21.0223 21.5537C21.8509 21.5537 22.5223 20.8818 22.5223 20.0537V19.6436H23.2616C24.608 19.6436 25.8799 19.3311 27.0223 18.7888V25.8213C27.0223 27.2978 25.8207 28.5 24.3436 28.5Z" fill="#F4876B"/>
</g>
<defs>
<clipPath id="clip0_1_188">
<rect width="32" height="32" fill="white" transform="translate(0.676147)"/>
</clipPath>
</defs>
</svg>