<svg xmlns="http://www.w3.org/2000/svg" fill="none" viewBox="2.53 2 28 28">
<path d="M17.5256 4V3C17.5256 2.73478 17.4203 2.48043 17.2327 2.29289C17.0452 2.10536 16.7909 2 16.5256 2C16.2604 2 16.0061 2.10536 15.8185 2.29289C15.631 2.48043 15.5256 2.73478 15.5256 3V4C15.5256 4.26522 15.631 4.51957 15.8185 4.70711C16.0061 4.89464 16.2604 5 16.5256 5C16.7909 5 17.0452 4.89464 17.2327 4.70711C17.4203 4.51957 17.5256 4.26522 17.5256 4ZM8.03563 6.1C7.84433 5.93617 7.59826 5.85057 7.34658 5.86029C7.09491 5.87001 6.85617 5.97434 6.67807 6.15244C6.49998 6.33053 6.39564 6.56927 6.38592 6.82095C6.3762 7.07262 6.46181 7.3187 6.62563 7.51L7.33563 8.22C7.52694 8.38383 7.77301 8.46943 8.02469 8.45971C8.27636 8.44999 8.5151 8.34566 8.6932 8.16756C8.87129 7.98947 8.97562 7.75073 8.98535 7.49905C8.99507 7.24738 8.90946 7.0013 8.74564 6.81L8.03563 6.1ZM4.52563 17C4.79085 17 5.0452 16.8946 5.23274 16.7071C5.42028 16.5196 5.52563 16.2652 5.52563 16C5.52563 15.7348 5.42028 15.4804 5.23274 15.2929C5.0452 15.1054 4.79085 15 4.52563 15H3.52563C3.26042 15 3.00606 15.1054 2.81853 15.2929C2.63099 15.4804 2.52563 15.7348 2.52563 16C2.52563 16.2652 2.63099 16.5196 2.81853 16.7071C3.00606 16.8946 3.26042 17 3.52563 17H4.52563ZM6.62563 25.9C6.813 26.0862 7.06645 26.1908 7.33063 26.1908C7.59482 26.1908 7.84827 26.0862 8.03563 25.9L8.74564 25.19C8.90946 24.9987 8.99507 24.7526 8.98535 24.5009C8.97562 24.2493 8.87129 24.0105 8.6932 23.8324C8.5151 23.6543 8.27636 23.55 8.02469 23.5403C7.77301 23.5306 7.52694 23.6162 7.33563 23.78L6.62563 24.49C6.43938 24.6774 6.33484 24.9308 6.33484 25.195C6.33484 25.4592 6.43938 25.7126 6.62563 25.9ZM25.7156 23.78C25.5243 23.6162 25.2783 23.5306 25.0266 23.5403C24.7749 23.55 24.5362 23.6543 24.3581 23.8324C24.18 24.0105 24.0756 24.2493 24.0659 24.5009C24.0562 24.7526 24.1418 24.9987 24.3056 25.19L25.0156 25.9C25.2069 26.0638 25.453 26.1494 25.7047 26.1397C25.9564 26.13 26.1951 26.0257 26.3732 25.8476C26.5513 25.6695 26.6556 25.4307 26.6653 25.1791C26.6751 24.9274 26.5895 24.6813 26.4256 24.49L25.7156 23.78ZM29.5256 15H28.5256C28.2604 15 28.0061 15.1054 27.8185 15.2929C27.631 15.4804 27.5256 15.7348 27.5256 16C27.5256 16.2652 27.631 16.5196 27.8185 16.7071C28.0061 16.8946 28.2604 17 28.5256 17H29.5256C29.7909 17 30.0452 16.8946 30.2327 16.7071C30.4203 16.5196 30.5256 16.2652 30.5256 16C30.5256 15.7348 30.4203 15.4804 30.2327 15.2929C30.0452 15.1054 29.7909 15 29.5256 15ZM26.4256 6.1C26.2383 5.91375 25.9848 5.80921 25.7206 5.80921C25.4564 5.80921 25.203 5.91375 25.0156 6.1L24.3056 6.81C24.201 6.89965 24.1159 7.00996 24.0559 7.13403C23.9959 7.25809 23.9622 7.39323 23.9568 7.53095C23.9515 7.66867 23.9747 7.806 24.025 7.93432C24.0753 8.06265 24.1515 8.1792 24.249 8.27665C24.3464 8.3741 24.463 8.45036 24.5913 8.50064C24.7196 8.55091 24.857 8.57412 24.9947 8.5688C25.1324 8.56348 25.2675 8.52975 25.3916 8.46973C25.5157 8.4097 25.626 8.32468 25.7156 8.22L26.4256 7.51C26.6119 7.32264 26.7164 7.06919 26.7164 6.805C26.7164 6.54081 26.6119 6.28736 26.4256 6.1ZM7.52563 16C7.52782 17.4778 7.89389 18.9324 8.59152 20.2352C9.28914 21.538 10.2968 22.649 11.5256 23.47V29C11.5256 29.2652 11.631 29.5196 11.8185 29.7071C12.0061 29.8946 12.2604 30 12.5256 30H20.5256C20.7909 30 21.0452 29.8946 21.2327 29.7071C21.4203 29.5196 21.5256 29.2652 21.5256 29V23.47C22.8189 22.6059 23.8662 21.4213 24.5653 20.0318C25.2644 18.6423 25.5915 17.0954 25.5146 15.5419C25.4377 13.9883 24.9596 12.4812 24.1267 11.1676C23.2938 9.85391 22.1347 8.77853 20.7624 8.0463C19.3901 7.31408 17.8514 6.95001 16.2965 6.98961C14.7416 7.02921 13.2234 7.47112 11.8902 8.27225C10.5569 9.07338 9.45404 10.2064 8.68912 11.5607C7.92419 12.9151 7.52333 14.4446 7.52563 16ZM13.5256 28V26H19.5256V28H13.5256ZM16.5256 9C18.0659 9.00083 19.5629 9.50964 20.7846 10.4476C22.0063 11.3855 22.8846 12.7002 23.2833 14.188C23.682 15.6757 23.5789 17.2534 22.9899 18.6766C22.401 20.0998 21.359 21.289 20.0256 22.06C19.873 22.1481 19.7464 22.275 19.6586 22.4277C19.5708 22.5805 19.5249 22.7538 19.5256 22.93V24H17.5256V18H19.5256C19.7909 18 20.0452 17.8946 20.2327 17.7071C20.4203 17.5196 20.5256 17.2652 20.5256 17C20.5256 16.7348 20.4203 16.4804 20.2327 16.2929C20.0452 16.1054 19.7909 16 19.5256 16H13.5256C13.2604 16 13.0061 16.1054 12.8185 16.2929C12.631 16.4804 12.5256 16.7348 12.5256 17C12.5256 17.2652 12.631 17.5196 12.8185 17.7071C13.0061 17.8946 13.2604 18 13.5256 18H15.5256V24H13.5256V22.92C13.5263 22.7438 13.4805 22.5705 13.3927 22.4177C13.3049 22.265 13.1782 22.1381 13.0256 22.05C11.6972 21.2769 10.6601 20.088 10.0745 18.6668C9.48891 17.2457 9.38736 15.6713 9.78553 14.1867C10.1837 12.7021 11.0595 11.3898 12.2776 10.4524C13.4957 9.51499 14.9886 9.0046 16.5256 9Z" fill="#B4708D"/>
</svg>