<svg width="199" height="165" viewBox="0 0 199 165" fill="none" xmlns="http://www.w3.org/2000/svg">
<g opacity="0.05">
<ellipse cx="6.48472" cy="5.35845" rx="6.48472" ry="5.35845" fill="#0F001A"/>
<ellipse cx="6.48472" cy="36.1026" rx="6.48472" ry="5.35845" fill="#0F001A"/>
<ellipse cx="6.48472" cy="66.8467" rx="6.48472" ry="5.35845" fill="#0F001A"/>
<ellipse cx="6.48472" cy="97.5909" rx="6.48472" ry="5.35845" fill="#0F001A"/>
<ellipse cx="6.48472" cy="128.335" rx="6.48472" ry="5.35845" fill="#0F001A"/>
<ellipse cx="6.48472" cy="159.079" rx="6.48472" ry="5.35845" fill="#0F001A"/>
<ellipse cx="43.6908" cy="5.35845" rx="6.48472" ry="5.35845" fill="#0F001A"/>
<ellipse cx="43.6908" cy="36.1026" rx="6.48472" ry="5.35845" fill="#0F001A"/>
<ellipse cx="43.6908" cy="66.8467" rx="6.48472" ry="5.35845" fill="#0F001A"/>
<ellipse cx="43.6908" cy="97.5909" rx="6.48472" ry="5.35845" fill="#0F001A"/>
<ellipse cx="43.6908" cy="128.335" rx="6.48472" ry="5.35845" fill="#0F001A"/>
<ellipse cx="43.6908" cy="159.079" rx="6.48472" ry="5.35845" fill="#0F001A"/>
<ellipse cx="80.8968" cy="5.35845" rx="6.48472" ry="5.35845" fill="#0F001A"/>
<ellipse cx="80.8968" cy="36.1026" rx="6.48472" ry="5.35845" fill="#0F001A"/>
<ellipse cx="80.8968" cy="66.8467" rx="6.48472" ry="5.35845" fill="#0F001A"/>
<ellipse cx="80.8968" cy="97.5909" rx="6.48472" ry="5.35845" fill="#0F001A"/>
<ellipse cx="80.8968" cy="128.335" rx="6.48472" ry="5.35845" fill="#0F001A"/>
<ellipse cx="80.8968" cy="159.079" rx="6.48472" ry="5.35845" fill="#0F001A"/>
<ellipse cx="118.103" cy="5.35845" rx="6.48472" ry="5.35845" fill="#0F001A"/>
<ellipse cx="155.309" cy="5.35845" rx="6.48472" ry="5.35845" fill="#0F001A"/>
<ellipse cx="192.515" cy="5.35845" rx="6.48472" ry="5.35845" fill="#0F001A"/>
<ellipse cx="118.103" cy="36.1026" rx="6.48472" ry="5.35845" fill="#0F001A"/>
<ellipse cx="155.309" cy="36.1026" rx="6.48472" ry="5.35845" fill="#0F001A"/>
<ellipse cx="192.515" cy="36.1026" rx="6.48472" ry="5.35845" fill="#0F001A"/>
<ellipse cx="118.103" cy="66.8467" rx="6.48472" ry="5.35845" fill="#0F001A"/>
<ellipse cx="155.309" cy="66.8467" rx="6.48472" ry="5.35845" fill="#0F001A"/>
<ellipse cx="192.515" cy="66.8467" rx="6.48472" ry="5.35845" fill="#0F001A"/>
<ellipse cx="118.103" cy="97.5909" rx="6.48472" ry="5.35845" fill="#0F001A"/>
<ellipse cx="118.103" cy="128.335" rx="6.48472" ry="5.35845" fill="#0F001A"/>
<ellipse cx="118.103" cy="159.079" rx="6.48472" ry="5.35845" fill="#0F001A"/>
<ellipse cx="155.309" cy="97.5909" rx="6.48472" ry="5.35845" fill="#0F001A"/>
<ellipse cx="155.309" cy="128.335" rx="6.48472" ry="5.35845" fill="#0F001A"/>
<ellipse cx="155.309" cy="159.079" rx="6.48472" ry="5.35845" fill="#0F001A"/>
<ellipse cx="192.515" cy="97.5909" rx="6.48472" ry="5.35845" fill="#0F001A"/>
<ellipse cx="192.515" cy="128.335" rx="6.48472" ry="5.35845" fill="#0F001A"/>
<ellipse cx="192.515" cy="159.079" rx="6.48472" ry="5.35845" fill="#0F001A"/>
</g>
</svg>
