<svg xmlns="http://www.w3.org/2000/svg" fill="none" viewBox="38.36 20.65 48.96 48.96">
<g filter="url(#filter0_d_1_156)">
<path d="M38.36 32.8932C38.36 26.1332 43.84 20.6532 50.6 20.6532H75.08C81.8399 20.6532 87.32 26.1332 87.32 32.8932V57.3732C87.32 64.1332 81.8399 69.6132 75.08 69.6132H50.6C43.84 69.6132 38.36 64.1332 38.36 57.3732V32.8932Z" fill="#091F18"/>
<path d="M75.2713 50.5518H74.1876V49.5955H75.2713C76.0363 49.5955 76.6738 48.958 76.6738 48.193V41.4993C76.6738 40.288 75.6538 39.268 74.4426 39.268H67.4301C66.2188 39.268 65.1988 40.288 65.1988 41.4993V48.193C65.1988 48.958 65.8363 49.5955 66.6013 49.5955H67.6851V50.5518H66.6013C65.2626 50.5518 64.2426 49.468 64.2426 48.193V41.4993C64.2426 39.7143 65.6451 38.3118 67.4301 38.3118H74.5063C76.2913 38.3118 77.6938 39.7143 77.6938 41.4993V48.193C77.6938 49.5318 76.6101 50.5518 75.2713 50.5518ZM70.9363 37.2918C69.0238 37.2918 67.4301 35.698 67.4301 33.7855C67.4301 31.873 69.0238 30.2793 70.9363 30.2793C72.8488 30.2793 74.4426 31.873 74.4426 33.7855C74.4426 35.698 72.9126 37.2918 70.9363 37.2918ZM70.9363 31.2993C69.5338 31.2993 68.3863 32.4468 68.3863 33.8493C68.3863 35.2518 69.5338 36.3993 70.9363 36.3993C72.3388 36.3993 73.4863 35.2518 73.4863 33.8493C73.4863 32.4468 72.3388 31.2993 70.9363 31.2993Z" fill="#F5F5F4"/>
<path d="M72.5937 59.9868C71.9562 59.9868 71.3825 59.668 71 59.2218C70.6175 59.668 70.0437 59.9868 69.4062 59.9868C68.2587 59.9868 67.3025 59.0305 67.3025 57.883V42.328H68.2587V57.883C68.2587 58.5205 68.7687 59.0305 69.4062 59.0305C70.0437 59.0305 70.49 58.4568 70.49 57.883V50.1055H71.4462V57.883C71.4462 58.5205 71.9562 59.0305 72.5937 59.0305C73.2312 59.0305 73.7412 58.5205 73.7412 57.883V42.328H74.6975V57.883C74.6975 59.0305 73.7412 59.9868 72.5937 59.9868Z" fill="#F5F5F4"/>
<path d="M65.7088 53.3569H48.05V33.3394H66.0275V34.2956H49.0063V52.4006H65.7088V53.3569Z" fill="#F5F5F4"/>
<path d="M62.585 42.2644H51.62V43.2207H62.585V42.2644Z" fill="#F5F5F4"/>
<path d="M62.585 45.5156H51.62V46.4719H62.585V45.5156Z" fill="#F5F5F4"/>
<path d="M62.585 48.8306H51.62V49.7868H62.585V48.8306Z" fill="#F5F5F4"/>
</g>
<defs>
<filter id="filter0_d_1_156" x="0.109985" y="0.763199" width="125.46" height="125.46" filterUnits="userSpaceOnUse" color-interpolation-filters="sRGB">
<feFlood flood-opacity="0" result="BackgroundImageFix"/>
<feColorMatrix in="SourceAlpha" type="matrix" values="0 0 0 0 0 0 0 0 0 0 0 0 0 0 0 0 0 0 127 0" result="hardAlpha"/>
<feOffset dy="18.36"/>
<feGaussianBlur stdDeviation="19.125"/>
<feComposite in2="hardAlpha" operator="out"/>
<feColorMatrix type="matrix" values="0 0 0 0 0.0509804 0 0 0 0 0.0470588 0 0 0 0 0.219608 0 0 0 0.15 0"/>
<feBlend mode="normal" in2="BackgroundImageFix" result="effect1_dropShadow_1_156"/>
<feBlend mode="normal" in="SourceGraphic" in2="effect1_dropShadow_1_156" result="shape"/>
</filter>
</defs>
</svg>