<svg xmlns="http://www.w3.org/2000/svg" fill="none" viewBox="38.36 20.7 48.96 48.96">
<g filter="url(#filter0_d_1_141)">
<path d="M38.36 32.9359C38.36 26.176 43.84 20.6959 50.6 20.6959H75.08C81.8399 20.6959 87.32 26.176 87.32 32.9359V57.4159C87.32 64.1759 81.8399 69.6559 75.08 69.6559H50.6C43.84 69.6559 38.36 64.1759 38.36 57.4159V32.9359Z" fill="#091F18"/>
<g clip-path="url(#clip0_1_141)">
<path d="M65.6998 55.106H59.3998L58.6498 53.081H47.3248V33.806C47.3248 32.906 48.0748 32.156 48.9748 32.156H77.0248C77.9248 32.156 78.6748 32.906 78.6748 33.806V53.156H67.1998L65.6998 55.106ZM60.2248 53.981H65.1748L66.6748 51.956H77.5498V33.806C77.5498 33.506 77.3248 33.281 77.0248 33.281H48.9748C48.6748 33.281 48.4498 33.506 48.4498 33.806V52.031H59.4748L60.2248 53.981Z" fill="white"/>
<path d="M75.5999 57.356H50.3999C47.6999 57.356 45.5249 55.181 45.5249 52.481V51.881H59.3999L60.1499 53.906H65.0999L66.5999 51.881H80.3999V52.481C80.4749 55.181 78.2249 57.356 75.5999 57.356ZM46.7249 53.081C47.0249 54.881 48.5249 56.231 50.3999 56.231H75.5249C77.3999 56.231 78.9749 54.881 79.1999 53.081H67.1999L65.6999 55.106H59.3999L58.6499 53.081H46.7249Z" fill="white"/>
<path d="M57.5249 36.131H51.7499V41.156H57.5249V36.131Z" fill="white"/>
<path d="M58.0499 41.681H51.1499V35.531H58.0499V41.681ZM52.2749 40.556H56.9249V36.656H52.2749V40.556Z" fill="white"/>
<path d="M57.5249 44.0809H51.7499V49.1059H57.5249V44.0809Z" fill="white"/>
<path d="M58.0499 49.706H51.1499V43.556H58.0499V49.706ZM52.2749 48.581H56.9249V44.681H52.2749V48.581Z" fill="white"/>
<path d="M74.5499 38.006H61.1249V39.131H74.5499V38.006Z" fill="white"/>
<path d="M74.5499 46.031H61.1249V47.156H74.5499V46.031Z" fill="white"/>
</g>
</g>
<defs>
<filter id="filter0_d_1_141" x="0.109985" y="0.805923" width="125.46" height="125.46" filterUnits="userSpaceOnUse" color-interpolation-filters="sRGB">
<feFlood flood-opacity="0" result="BackgroundImageFix"/>
<feColorMatrix in="SourceAlpha" type="matrix" values="0 0 0 0 0 0 0 0 0 0 0 0 0 0 0 0 0 0 127 0" result="hardAlpha"/>
<feOffset dy="18.36"/>
<feGaussianBlur stdDeviation="19.125"/>
<feComposite in2="hardAlpha" operator="out"/>
<feColorMatrix type="matrix" values="0 0 0 0 0.0509804 0 0 0 0 0.0470588 0 0 0 0 0.219608 0 0 0 0.15 0"/>
<feBlend mode="normal" in2="BackgroundImageFix" result="effect1_dropShadow_1_141"/>
<feBlend mode="normal" in="SourceGraphic" in2="effect1_dropShadow_1_141" result="shape"/>
</filter>
<clipPath id="clip0_1_141">
<rect width="36" height="36" fill="white" transform="translate(44.9999 26.756)"/>
</clipPath>
</defs>
</svg>