<svg xmlns="http://www.w3.org/2000/svg" fill="none" viewBox="0.36 0.61 80 80">
<path fill-rule="evenodd" clip-rule="evenodd" d="M40.36 8.60962C36.1577 8.60962 31.9966 9.43732 28.1141 11.0455C24.2317 12.6536 20.7041 15.0107 17.7326 17.9822C14.7611 20.9537 12.404 24.4813 10.7958 28.3637C9.18769 32.2462 8.35999 36.4073 8.35999 40.6096C8.35998 44.8119 9.18769 48.9731 10.7958 52.8555C12.404 56.7379 14.7611 60.2655 17.7326 63.237C20.704 66.2085 24.2317 68.5656 28.1141 70.1738C31.9965 71.7819 36.1577 72.6096 40.36 72.6096C44.5623 72.6096 48.7234 71.7819 52.6058 70.1738C56.4883 68.5656 60.0159 66.2085 62.9874 63.237C65.9589 60.2656 68.316 56.7379 69.9241 52.8555C71.5323 48.9731 72.36 44.8119 72.36 40.6096C72.36 36.4073 71.5323 32.2462 69.9241 28.3638C68.316 24.4813 65.9589 20.9537 62.9874 17.9822C60.0159 15.0107 56.4883 12.6536 52.6059 11.0455C48.7234 9.43732 44.5623 8.60962 40.36 8.60962ZM25.0527 3.65443C29.9057 1.64424 35.1071 0.609616 40.36 0.609619C45.6129 0.609619 50.8143 1.64425 55.6673 3.65444C60.5203 5.66463 64.9299 8.61101 68.6443 12.3254C72.3586 16.0397 75.305 20.4493 77.3152 25.3023C79.3254 30.1553 80.36 35.3568 80.36 40.6096C80.36 45.8625 79.3254 51.0639 77.3152 55.917C75.305 60.77 72.3586 65.1796 68.6442 68.8939C64.9299 72.6082 60.5203 75.5546 55.6673 77.5648C50.8143 79.575 45.6128 80.6096 40.36 80.6096C35.1071 80.6096 29.9057 79.575 25.0526 77.5648C20.1996 75.5546 15.79 72.6082 12.0757 68.8939C8.36136 65.1795 5.41498 60.77 3.4048 55.9169C1.39461 51.0639 0.359982 45.8625 0.359985 40.6096C0.359988 35.3567 1.39462 30.1553 3.40481 25.3023C5.415 20.4492 8.36139 16.0397 12.0757 12.3253C15.7901 8.61099 20.1996 5.66461 25.0527 3.65443Z" fill="#EAECF0"/>
<path fill-rule="evenodd" clip-rule="evenodd" d="M36.36 4.60962C36.36 2.40048 38.1508 0.609619 40.36 0.609619C48.8072 0.609619 57.0375 3.28382 63.8714 8.24894C70.7053 13.2141 75.7919 20.2152 78.4022 28.2489C81.0126 36.2827 81.0126 44.9366 78.4022 52.9703C75.7919 61.004 70.7053 68.0052 63.8714 72.9703C62.0842 74.2688 59.5827 73.8726 58.2842 72.0854C56.9857 70.2981 57.3819 67.7967 59.1691 66.4982C64.6362 62.5261 68.7055 56.9252 70.7938 50.4982C72.882 44.0712 72.882 37.1481 70.7938 30.7211C68.7055 24.2941 64.6362 18.6932 59.1691 14.7211C53.702 10.749 47.1177 8.60962 40.36 8.60962C38.1508 8.60962 36.36 6.81876 36.36 4.60962Z" fill="#141414"/>
</svg>